# xmcd
#
# Track frame offsets:
#       150
#       14050
#       25297
#       37615
#       54920
#       64302
#       77917
#       89610
#       101402
#       114970
#       127885
#       142397
#
# Disc length: 2065 seconds
#
# Revision: 1
# Processed by: cddbd v1.5.2PL0 Copyright (c) Steve Scherf et al.
# Submitted via: FreeDbEdit v0.1
#
DISCID=9d080f0c
DTITLE=The Supremes - I Hear a Symphony
DYEAR=1900
DGENRE=
TTITLE0=Stranger in Paradise
TTITLE1=Yesterday
TTITLE2=I Hear a Symphony
TTITLE3=Unchained Melody
TTITLE4=With a Song in My Heart
TTITLE5=Without a Song
TTITLE6=My World Is Empty Without You
TTITLE7=A Lover's Concerto
TTITLE8=Any Girl in Love (Knows What I Am Going Through)
TTITLE9=Wonderful, Wonderful
TTITLE10=Everything Is Good About You
TTITLE11=He's All I Got
EXTD=
EXTT0=
EXTT1=
EXTT2=
EXTT3=
EXTT4=
EXTT5=
EXTT6=
EXTT7=
EXTT8=
EXTT9=
EXTT10=
EXTT11=
PLAYORDER=
